<?xml version="1.0" encoding="UTF-8"?>
<svg id="Layer_1" data-name="Layer 1" xmlns="http://www.w3.org/2000/svg" viewBox="0 0 24.81 34.77">
  <defs>
    <style>
      .cls-1 {
        stroke-width: .25px;
      }

      .cls-1, .cls-2 {
        fill: #e3e3e3;
        stroke: #e3e3e3;
      }

      .cls-3 {
        fill: #e6e7e8;
        stroke: #231f20;
        stroke-linecap: round;
      }

      .cls-4 {
        fill-rule: evenodd;
        stroke: #fff;
      }
    </style>
  </defs>
  <path class="cls-4" d="M1.13,5.07v27.84L12.26,13.71h10.94c1.82,0,1.1-8.17,0-11.66C22.1-1.44,1.13,2.05,1.13,2.05v3.02Z"/>
  <path class="cls-1" d="M4.33,20.8l4.21-13.15c-1.4,3.96-2.8,8.56-4.21,13.15Z"/>
  <path class="cls-2" d="M9.57,9.6c-1.04-.51-2.85-2.64,0-4.66,2.66-1.42,4.09-1.33,6.53,0,2.3,1.95,2.34,2.97,0,4.66-2.45,1.6-5.49.51-6.53,0Z"/>
  <circle class="cls-3" cx="1.26" cy="32.21" r=".76"/>
  <path class="cls-1" d="M1.9,31.15c.18.02.42-.19.69-.58.83-1.19,2.13-4.12,3.12-6.1.84-1.77,1.82-3.71,1.25-3.19-.92.74-3.78,6.94-4.82,3.93-.33-.9-.4-2.32-.61-3.21-.09-.18-.1.13-.12.26-.09.98-.12,4.66-.06,6.91.08.69-.02,1.54.48,1.95h.06Z"/>
</svg>
